<?xml version="1.0" encoding="UTF-8"?>
<svg width="190px" height="34px" viewBox="0 0 190 34" version="1.1" xmlns="http://www.w3.org/2000/svg" xmlns:xlink="http://www.w3.org/1999/xlink">
    <!-- Generator: Sketch 48.1 (47250) - http://www.bohemiancoding.com/sketch -->
    <title>harbor-logo</title>
    <desc>Created with Sketch.</desc>
    <defs>
        <polygon id="path-1" points="0.0001 -0.0003 189.8701 -0.0003 189.8701 33.9495 0.0001 33.9495"></polygon>
    </defs>
    <g id="Header-Menu" stroke="none" stroke-width="1" fill="none" fill-rule="evenodd" transform="translate(-161.000000, -25.000000)">
        <g id="harbor-logo" transform="translate(161.000000, 25.000000)">
            <mask id="mask-2" fill="white">
                <use xlink:href="#path-1"></use>
            </mask>
            <g id="Clip-2"></g>
            <path d="M16.4901,15.5197 C16.4901,16.0557 16.0561,16.4907 15.5201,16.4907 L9.7001,16.4907 C9.1641,16.4907 8.7301,16.0557 8.7301,15.5197 L8.7301,9.7007 C8.7301,9.1647 9.1641,8.7297 9.7001,8.7297 L15.5201,8.7297 C16.0561,8.7297 16.4901,9.1647 16.4901,9.7007 L16.4901,15.5197 Z M32.9791,25.2197 L25.2201,25.2197 L25.2201,1.9397 C25.2201,0.8687 24.3511,-0.0003 23.2801,-0.0003 L1.9401,-0.0003 C0.8681,-0.0003 0.0001,0.8687 0.0001,1.9397 L0.0001,23.2807 C0.0001,24.3517 0.8681,25.2197 1.9401,25.2197 L25.2191,25.2197 L25.2191,32.9797 C25.2191,33.5147 25.6531,33.9497 26.1891,33.9497 L32.9791,33.9497 C33.5141,33.9497 33.9491,33.5147 33.9491,32.9797 L33.9491,26.1897 C33.9491,25.6537 33.5141,25.2197 32.9791,25.2197 Z M180.6611,12.4477 C183.6541,12.4477 185.3161,10.8507 185.3161,8.4237 L185.3161,8.3587 C185.3161,5.7317 183.6201,4.3687 180.7281,4.3687 L176.5061,4.3687 L176.5061,12.4477 L180.6611,12.4477 Z M172.6491,0.8437 L181.0601,0.8437 C183.7201,0.8437 185.8811,1.6427 187.2771,3.0387 C188.5071,4.2697 189.2061,6.0317 189.2061,8.1587 L189.2061,8.2907 C189.2061,11.8817 187.2111,14.1087 184.3851,15.1067 L189.8701,24.1157 L185.4161,24.1157 L180.4621,15.8717 C180.3951,15.9047 180.2961,15.9047 180.2301,15.9047 L176.5061,15.9047 L176.5061,24.1157 L172.6491,24.1157 L172.6491,0.8437 Z M161.9831,12.6137 L161.9831,12.3807 C161.9831,7.3937 159.3231,4.0367 155.6331,4.0367 C151.9761,4.0367 149.3491,7.3277 149.3491,12.3467 L149.3491,12.5807 C149.3491,17.5667 152.0421,20.9247 155.6991,20.9247 C159.3561,20.9247 161.9831,17.6327 161.9831,12.6137 Z M145.3601,12.6797 L145.3601,12.3467 C145.3601,5.4317 149.6151,0.4787 155.6991,0.4787 C161.7501,0.4787 165.9721,5.3997 165.9721,12.2817 L165.9721,12.6137 C165.9721,19.5277 161.7171,24.4817 155.6331,24.4817 C149.5821,24.4817 145.3601,19.5617 145.3601,12.6797 Z M131.1281,14.0097 L126.4401,14.0097 L126.4401,20.6587 L131.2941,20.6587 C133.9531,20.6587 135.6161,19.4947 135.6161,17.3667 L135.6161,17.3007 C135.6161,15.2727 134.0531,14.0097 131.1281,14.0097 Z M134.6181,7.3937 C134.6181,5.4317 133.1891,4.3017 130.6961,4.3017 L126.4401,4.3017 L126.4401,10.7507 L130.4631,10.7507 C132.9901,10.7507 134.6181,9.6217 134.6181,7.4597 L134.6181,7.3937 Z M122.6501,0.8437 L130.9621,0.8437 C133.4891,0.8437 135.6161,1.5417 136.9121,2.8387 C137.9431,3.8707 138.4751,5.1657 138.4751,6.7617 L138.4751,6.8627 C138.4751,9.7207 136.8131,11.2167 135.0511,12.0817 C137.6111,12.9787 139.4721,14.5077 139.4721,17.6327 L139.4721,17.7657 C139.4721,21.8557 136.1481,24.1157 131.1951,24.1157 L122.6501,24.1157 L122.6501,0.8437 Z M105.5331,12.4477 C108.5251,12.4477 110.1871,10.8507 110.1871,8.4237 L110.1871,8.3587 C110.1871,5.7317 108.4921,4.3687 105.5991,4.3687 L101.3771,4.3687 L101.3771,12.4477 L105.5331,12.4477 Z M97.5211,0.8437 L105.9321,0.8437 C108.5921,0.8437 110.7521,1.6427 112.1491,3.0387 C113.3791,4.2697 114.0771,6.0317 114.0771,8.1587 L114.0771,8.2907 C114.0771,11.8817 112.0821,14.1087 109.2571,15.1067 L114.7421,24.1157 L110.2871,24.1157 L105.3341,15.8717 C105.2671,15.9047 105.1671,15.9047 105.1001,15.9047 L101.3771,15.9047 L101.3771,24.1157 L97.5211,24.1157 L97.5211,0.8437 Z M83.3721,15.2067 L80.0481,5.8647 L76.7241,15.2067 L83.3721,15.2067 Z M78.2531,0.7107 L81.9761,0.7107 L90.5201,24.1157 L86.4981,24.1157 L84.5701,18.6307 L75.5271,18.6307 L73.5991,24.1157 L69.7091,24.1157 L78.2531,0.7107 Z M46.0051,0.8437 L49.8621,0.8437 L49.8621,10.6197 L59.0041,10.6197 L59.0041,0.8437 L62.8611,0.8437 L62.8611,24.1157 L59.0041,24.1157 L59.0041,14.2087 L49.8621,14.2087 L49.8621,24.1157 L46.0051,24.1157 L46.0051,0.8437 Z" id="Fill-1" fill="#3B4255" mask="url(#mask-2)"></path>
        </g>
    </g>
</svg>