<?xml version="1.0" encoding="UTF-8"?><svg xmlns="http://www.w3.org/2000/svg" viewBox="0 0 37 37" class="bw bx by"><path fill="#CCE7FF" d="M10.8 26.2l7.5-4.5v7.5l-7.5 4.5M25.8 17.2V9.7l-7.5 4.5v7.5l7.5 4.5v7.5l7.5-4.5v-7.5"></path><g fill="none" fill-rule="evenodd" stroke="#1078FF" stroke-linecap="round" stroke-linejoin="round"><path d="M25.8 9.7v7.5l-7.5 4.5-7.5-4.5V9.7"></path><path d="M25.8 9.7l-7.5 4.5-7.5-4.5 7.5-4.5zM18.2 14v7.6M33.3 21.7v7.5l-7.5 4.5-7.5-4.5v-7.5"></path><path d="M33.3 21.7l-7.5 4.5-7.5-4.5 7.5-4.5zM25.7 26v7.6"></path><path d="M18.3 21.7v7.5l-7.5 4.5-7.5-4.5v-7.5"></path><path d="M18.3 21.7l-7.5 4.5-7.5-4.5 7.5-4.5zM10.7 26v7.6"></path></g></svg>